<mxfile host="Electron" agent="Mozilla/5.0 (Windows NT 10.0; Win64; x64) AppleWebKit/537.36 (KHTML, like Gecko) draw.io/26.0.4 Chrome/128.0.6613.186 Electron/32.2.5 Safari/537.36" version="26.0.4">
  <diagram name="Page-1" id="0twbcz18AO-vgeIRnJ7T">
    <mxGraphModel dx="2284" dy="1936" grid="1" gridSize="10" guides="1" tooltips="1" connect="1" arrows="1" fold="1" page="1" pageScale="1" pageWidth="850" pageHeight="1100" math="0" shadow="0">
      <root>
        <mxCell id="0" />
        <mxCell id="1" parent="0" />
        <mxCell id="XJ3mTxxbePYoQH1ULrd1-1" value="&lt;div&gt;&lt;span style=&quot;font-weight: normal;&quot; data-end=&quot;374&quot; data-start=&quot;364&quot;&gt;&amp;lt;&amp;lt;abstract&amp;gt;&amp;gt;&lt;/span&gt;&lt;/div&gt;&lt;span style=&quot;font-weight: normal;&quot; data-end=&quot;374&quot; data-start=&quot;364&quot;&gt;Person&lt;/span&gt;" style="swimlane;fontStyle=1;align=center;verticalAlign=top;childLayout=stackLayout;horizontal=1;startSize=40;horizontalStack=0;resizeParent=1;resizeParentMax=0;resizeLast=0;collapsible=1;marginBottom=0;whiteSpace=wrap;html=1;" parent="1" vertex="1">
          <mxGeometry x="450" y="20" width="160" height="170" as="geometry" />
        </mxCell>
        <mxCell id="XJ3mTxxbePYoQH1ULrd1-2" value="- fullName: String&lt;div&gt;- address&lt;span style=&quot;background-color: transparent; color: light-dark(rgb(0, 0, 0), rgb(255, 255, 255));&quot;&gt;: String&lt;/span&gt;&lt;/div&gt;&lt;div&gt;- nationalID&lt;span style=&quot;background-color: transparent; color: light-dark(rgb(0, 0, 0), rgb(255, 255, 255));&quot;&gt;: String&lt;/span&gt;&lt;/div&gt;&lt;div&gt;- contactNumber: String&lt;/div&gt;" style="text;strokeColor=none;fillColor=none;align=left;verticalAlign=top;spacingLeft=4;spacingRight=4;overflow=hidden;rotatable=0;points=[[0,0.5],[1,0.5]];portConstraint=eastwest;whiteSpace=wrap;html=1;" parent="XJ3mTxxbePYoQH1ULrd1-1" vertex="1">
          <mxGeometry y="40" width="160" height="70" as="geometry" />
        </mxCell>
        <mxCell id="XJ3mTxxbePYoQH1ULrd1-3" value="" style="line;strokeWidth=1;fillColor=none;align=left;verticalAlign=middle;spacingTop=-1;spacingLeft=3;spacingRight=3;rotatable=0;labelPosition=right;points=[];portConstraint=eastwest;strokeColor=inherit;" parent="XJ3mTxxbePYoQH1ULrd1-1" vertex="1">
          <mxGeometry y="110" width="160" height="8" as="geometry" />
        </mxCell>
        <mxCell id="XJ3mTxxbePYoQH1ULrd1-4" value="&lt;div&gt;//setters and getters&lt;/div&gt;" style="text;strokeColor=none;fillColor=none;align=left;verticalAlign=top;spacingLeft=4;spacingRight=4;overflow=hidden;rotatable=0;points=[[0,0.5],[1,0.5]];portConstraint=eastwest;whiteSpace=wrap;html=1;" parent="XJ3mTxxbePYoQH1ULrd1-1" vertex="1">
          <mxGeometry y="118" width="160" height="52" as="geometry" />
        </mxCell>
        <mxCell id="XJ3mTxxbePYoQH1ULrd1-5" style="edgeStyle=elbowEdgeStyle;rounded=0;orthogonalLoop=1;jettySize=auto;html=1;entryX=1;entryY=0.5;entryDx=0;entryDy=0;" parent="1" source="XJ3mTxxbePYoQH1ULrd1-7" target="XJ3mTxxbePYoQH1ULrd1-2" edge="1">
          <mxGeometry relative="1" as="geometry">
            <mxPoint x="882" y="209" as="sourcePoint" />
            <mxPoint x="580" y="140" as="targetPoint" />
          </mxGeometry>
        </mxCell>
        <mxCell id="XJ3mTxxbePYoQH1ULrd1-6" value="&lt;div&gt;&lt;span style=&quot;font-weight: 400;&quot;&gt;&amp;lt;&amp;lt;abstract&amp;gt;&amp;gt;&lt;/span&gt;&lt;br&gt;&lt;/div&gt;Customer" style="swimlane;fontStyle=1;align=center;verticalAlign=top;childLayout=stackLayout;horizontal=1;startSize=40;horizontalStack=0;resizeParent=1;resizeParentMax=0;resizeLast=0;collapsible=1;marginBottom=0;whiteSpace=wrap;html=1;" parent="1" vertex="1">
          <mxGeometry x="750" y="-50" width="210" height="230" as="geometry" />
        </mxCell>
        <mxCell id="XJ3mTxxbePYoQH1ULrd1-7" value="- carList: List&amp;lt;Car&amp;gt;&lt;span style=&quot;background-color: transparent; color: light-dark(rgb(0, 0, 0), rgb(255, 255, 255));&quot;&gt;&amp;nbsp;&lt;/span&gt;&lt;div&gt;- fullName: String&lt;div&gt;- address&lt;span style=&quot;background-color: transparent; color: light-dark(rgb(0, 0, 0), rgb(255, 255, 255));&quot;&gt;: String&lt;/span&gt;&lt;/div&gt;&lt;div&gt;- nationalID&lt;span style=&quot;background-color: transparent; color: light-dark(rgb(0, 0, 0), rgb(255, 255, 255));&quot;&gt;: String&lt;/span&gt;&lt;/div&gt;&lt;div&gt;- contactNumber: String&lt;/div&gt;&lt;/div&gt;" style="text;strokeColor=none;fillColor=none;align=left;verticalAlign=top;spacingLeft=4;spacingRight=4;overflow=hidden;rotatable=0;points=[[0,0.5],[1,0.5]];portConstraint=eastwest;whiteSpace=wrap;html=1;" parent="XJ3mTxxbePYoQH1ULrd1-6" vertex="1">
          <mxGeometry y="40" width="210" height="90" as="geometry" />
        </mxCell>
        <mxCell id="XJ3mTxxbePYoQH1ULrd1-8" value="" style="line;strokeWidth=1;fillColor=none;align=left;verticalAlign=middle;spacingTop=-1;spacingLeft=3;spacingRight=3;rotatable=0;labelPosition=right;points=[];portConstraint=eastwest;strokeColor=inherit;" parent="XJ3mTxxbePYoQH1ULrd1-6" vertex="1">
          <mxGeometry y="130" width="210" height="8" as="geometry" />
        </mxCell>
        <mxCell id="XJ3mTxxbePYoQH1ULrd1-9" value="+ getCarList(): List&amp;lt;Car&amp;gt;&lt;div&gt;&lt;span style=&quot;background-color: transparent; color: light-dark(rgb(0, 0, 0), rgb(255, 255, 255));&quot;&gt;+calculateBill(): double&lt;/span&gt;&lt;br&gt;&lt;/div&gt;&lt;div&gt;+ getDetails(): String&lt;/div&gt;&lt;div&gt;//setters and getters&lt;/div&gt;" style="text;strokeColor=none;fillColor=none;align=left;verticalAlign=top;spacingLeft=4;spacingRight=4;overflow=hidden;rotatable=0;points=[[0,0.5],[1,0.5]];portConstraint=eastwest;whiteSpace=wrap;html=1;" parent="XJ3mTxxbePYoQH1ULrd1-6" vertex="1">
          <mxGeometry y="138" width="210" height="92" as="geometry" />
        </mxCell>
        <mxCell id="XJ3mTxxbePYoQH1ULrd1-10" value="PrivateCustomer" style="swimlane;fontStyle=1;align=center;verticalAlign=top;childLayout=stackLayout;horizontal=1;startSize=26;horizontalStack=0;resizeParent=1;resizeParentMax=0;resizeLast=0;collapsible=1;marginBottom=0;whiteSpace=wrap;html=1;" parent="1" vertex="1">
          <mxGeometry x="1220" y="630" width="160" height="52" as="geometry" />
        </mxCell>
        <mxCell id="XJ3mTxxbePYoQH1ULrd1-11" value="+calculateBill(): double" style="text;strokeColor=none;fillColor=none;align=left;verticalAlign=top;spacingLeft=4;spacingRight=4;overflow=hidden;rotatable=0;points=[[0,0.5],[1,0.5]];portConstraint=eastwest;whiteSpace=wrap;html=1;" parent="XJ3mTxxbePYoQH1ULrd1-10" vertex="1">
          <mxGeometry y="26" width="160" height="26" as="geometry" />
        </mxCell>
        <mxCell id="XJ3mTxxbePYoQH1ULrd1-12" style="edgeStyle=elbowEdgeStyle;rounded=0;orthogonalLoop=1;jettySize=auto;html=1;elbow=vertical;entryX=0.623;entryY=0.973;entryDx=0;entryDy=0;entryPerimeter=0;" parent="1" source="XJ3mTxxbePYoQH1ULrd1-13" target="XJ3mTxxbePYoQH1ULrd1-9" edge="1">
          <mxGeometry relative="1" as="geometry">
            <mxPoint x="910" y="300" as="targetPoint" />
            <Array as="points">
              <mxPoint x="1010" y="500" />
            </Array>
          </mxGeometry>
        </mxCell>
        <mxCell id="XJ3mTxxbePYoQH1ULrd1-13" value="FleetCustomer" style="swimlane;fontStyle=1;align=center;verticalAlign=top;childLayout=stackLayout;horizontal=1;startSize=26;horizontalStack=0;resizeParent=1;resizeParentMax=0;resizeLast=0;collapsible=1;marginBottom=0;whiteSpace=wrap;html=1;" parent="1" vertex="1">
          <mxGeometry x="1030" y="640" width="160" height="70" as="geometry" />
        </mxCell>
        <mxCell id="XJ3mTxxbePYoQH1ULrd1-14" value="+ getDiscount(): double&lt;div&gt;+calculateBill(): double&lt;br&gt;&lt;/div&gt;" style="text;strokeColor=none;fillColor=none;align=left;verticalAlign=top;spacingLeft=4;spacingRight=4;overflow=hidden;rotatable=0;points=[[0,0.5],[1,0.5]];portConstraint=eastwest;whiteSpace=wrap;html=1;" parent="XJ3mTxxbePYoQH1ULrd1-13" vertex="1">
          <mxGeometry y="26" width="160" height="44" as="geometry" />
        </mxCell>
        <mxCell id="XJ3mTxxbePYoQH1ULrd1-15" value="StaffCustomer" style="swimlane;fontStyle=1;align=center;verticalAlign=top;childLayout=stackLayout;horizontal=1;startSize=26;horizontalStack=0;resizeParent=1;resizeParentMax=0;resizeLast=0;collapsible=1;marginBottom=0;whiteSpace=wrap;html=1;" parent="1" vertex="1">
          <mxGeometry x="890" y="560" width="160" height="80" as="geometry" />
        </mxCell>
        <mxCell id="XJ3mTxxbePYoQH1ULrd1-16" value="+ getDiscount(): double&lt;div&gt;+calculateBill(): double&lt;br&gt;&lt;/div&gt;" style="text;strokeColor=none;fillColor=none;align=left;verticalAlign=top;spacingLeft=4;spacingRight=4;overflow=hidden;rotatable=0;points=[[0,0.5],[1,0.5]];portConstraint=eastwest;whiteSpace=wrap;html=1;" parent="XJ3mTxxbePYoQH1ULrd1-15" vertex="1">
          <mxGeometry y="26" width="160" height="54" as="geometry" />
        </mxCell>
        <mxCell id="XJ3mTxxbePYoQH1ULrd1-17" style="edgeStyle=elbowEdgeStyle;rounded=0;orthogonalLoop=1;jettySize=auto;html=1;entryX=0.915;entryY=0.961;entryDx=0;entryDy=0;entryPerimeter=0;elbow=vertical;" parent="1" source="XJ3mTxxbePYoQH1ULrd1-10" target="XJ3mTxxbePYoQH1ULrd1-9" edge="1">
          <mxGeometry relative="1" as="geometry" />
        </mxCell>
        <mxCell id="XJ3mTxxbePYoQH1ULrd1-18" style="edgeStyle=elbowEdgeStyle;rounded=0;orthogonalLoop=1;jettySize=auto;html=1;elbow=vertical;entryX=0.418;entryY=1.001;entryDx=0;entryDy=0;entryPerimeter=0;" parent="1" source="XJ3mTxxbePYoQH1ULrd1-15" target="XJ3mTxxbePYoQH1ULrd1-9" edge="1">
          <mxGeometry relative="1" as="geometry">
            <mxPoint x="867" y="300" as="targetPoint" />
            <Array as="points">
              <mxPoint x="867" y="520" />
            </Array>
          </mxGeometry>
        </mxCell>
        <mxCell id="XJ3mTxxbePYoQH1ULrd1-19" style="edgeStyle=orthogonalEdgeStyle;rounded=0;orthogonalLoop=1;jettySize=auto;html=1;exitX=0.213;exitY=1.013;exitDx=0;exitDy=0;exitPerimeter=0;" parent="1" source="m8UOoC5RrhPk3B2KH3hk-11" target="XJ3mTxxbePYoQH1ULrd1-4" edge="1">
          <mxGeometry relative="1" as="geometry">
            <mxPoint x="-270" y="70" as="sourcePoint" />
          </mxGeometry>
        </mxCell>
        <mxCell id="XJ3mTxxbePYoQH1ULrd1-25" value="Mechanic" style="swimlane;fontStyle=1;align=center;verticalAlign=top;childLayout=stackLayout;horizontal=1;startSize=26;horizontalStack=0;resizeParent=1;resizeParentMax=0;resizeLast=0;collapsible=1;marginBottom=0;whiteSpace=wrap;html=1;" parent="1" vertex="1">
          <mxGeometry x="-460" y="35" width="160" height="110" as="geometry" />
        </mxCell>
        <mxCell id="XJ3mTxxbePYoQH1ULrd1-26" value="+ viewAllAppointments():&lt;div&gt;+addServiceReport():&lt;/div&gt;" style="text;strokeColor=none;fillColor=none;align=left;verticalAlign=top;spacingLeft=4;spacingRight=4;overflow=hidden;rotatable=0;points=[[0,0.5],[1,0.5]];portConstraint=eastwest;whiteSpace=wrap;html=1;" parent="XJ3mTxxbePYoQH1ULrd1-25" vertex="1">
          <mxGeometry y="26" width="160" height="84" as="geometry" />
        </mxCell>
        <mxCell id="XJ3mTxxbePYoQH1ULrd1-27" style="edgeStyle=elbowEdgeStyle;rounded=0;orthogonalLoop=1;jettySize=auto;html=1;entryX=0;entryY=0.5;entryDx=0;entryDy=0;jumpStyle=arc;" parent="1" source="XJ3mTxxbePYoQH1ULrd1-28" target="m8UOoC5RrhPk3B2KH3hk-9" edge="1">
          <mxGeometry relative="1" as="geometry">
            <mxPoint x="-800" y="50" as="targetPoint" />
            <Array as="points">
              <mxPoint x="-680" y="200" />
            </Array>
          </mxGeometry>
        </mxCell>
        <mxCell id="XJ3mTxxbePYoQH1ULrd1-28" value="Technician" style="swimlane;fontStyle=1;align=center;verticalAlign=top;childLayout=stackLayout;horizontal=1;startSize=26;horizontalStack=0;resizeParent=1;resizeParentMax=0;resizeLast=0;collapsible=1;marginBottom=0;whiteSpace=wrap;html=1;" parent="1" vertex="1">
          <mxGeometry x="-600" y="340" width="290" height="130" as="geometry" />
        </mxCell>
        <mxCell id="XJ3mTxxbePYoQH1ULrd1-29" value="+ addDiagnosticResults():&lt;div&gt;+ generateDailyReport(String nationalID, String carPlate, String notes, String time): String&lt;/div&gt;" style="text;strokeColor=none;fillColor=none;align=left;verticalAlign=top;spacingLeft=4;spacingRight=4;overflow=hidden;rotatable=0;points=[[0,0.5],[1,0.5]];portConstraint=eastwest;whiteSpace=wrap;html=1;" parent="XJ3mTxxbePYoQH1ULrd1-28" vertex="1">
          <mxGeometry y="26" width="290" height="104" as="geometry" />
        </mxCell>
        <mxCell id="XJ3mTxxbePYoQH1ULrd1-30" style="edgeStyle=elbowEdgeStyle;rounded=0;orthogonalLoop=1;jettySize=auto;html=1;entryX=0.491;entryY=0.913;entryDx=0;entryDy=0;elbow=vertical;entryPerimeter=0;" parent="1" source="XJ3mTxxbePYoQH1ULrd1-25" target="m8UOoC5RrhPk3B2KH3hk-11" edge="1">
          <mxGeometry relative="1" as="geometry">
            <mxPoint x="-720" y="50" as="targetPoint" />
          </mxGeometry>
        </mxCell>
        <mxCell id="XJ3mTxxbePYoQH1ULrd1-31" value="&lt;p style=&quot;margin:0px;margin-top:4px;text-align:center;&quot;&gt;&lt;b&gt;Car&lt;/b&gt;&lt;/p&gt;&lt;hr size=&quot;1&quot; style=&quot;border-style:solid;&quot;&gt;- make: String&lt;br&gt;-model: String&lt;div&gt;-plateNumber: String&lt;br&gt;&lt;div style=&quot;height:2px;&quot;&gt;-owner: customer&lt;/div&gt;&lt;/div&gt;" style="verticalAlign=top;align=left;overflow=fill;html=1;whiteSpace=wrap;" parent="1" vertex="1">
          <mxGeometry x="1450" y="10" width="140" height="90" as="geometry" />
        </mxCell>
        <mxCell id="XJ3mTxxbePYoQH1ULrd1-32" value="" style="endArrow=diamondThin;endFill=0;endSize=24;html=1;rounded=0;edgeStyle=elbowEdgeStyle;exitX=0;exitY=0.25;exitDx=0;exitDy=0;entryX=1;entryY=0.25;entryDx=0;entryDy=0;" parent="1" source="XJ3mTxxbePYoQH1ULrd1-31" target="XJ3mTxxbePYoQH1ULrd1-6" edge="1">
          <mxGeometry width="160" relative="1" as="geometry">
            <mxPoint x="950" y="140" as="sourcePoint" />
            <mxPoint x="1110" y="140" as="targetPoint" />
          </mxGeometry>
        </mxCell>
        <mxCell id="XJ3mTxxbePYoQH1ULrd1-33" value="Appointment" style="swimlane;fontStyle=1;align=center;verticalAlign=top;childLayout=stackLayout;horizontal=1;startSize=26;horizontalStack=0;resizeParent=1;resizeParentMax=0;resizeLast=0;collapsible=1;marginBottom=0;whiteSpace=wrap;html=1;" parent="1" vertex="1">
          <mxGeometry x="490" y="350" width="210" height="210" as="geometry">
            <mxRectangle x="490" y="350" width="110" height="30" as="alternateBounds" />
          </mxGeometry>
        </mxCell>
        <mxCell id="XJ3mTxxbePYoQH1ULrd1-34" value="&lt;div&gt;- appointmentID: String&lt;/div&gt;&lt;div&gt;- date:&amp;nbsp;&lt;span style=&quot;background-color: transparent; color: light-dark(rgb(0, 0, 0), rgb(255, 255, 255));&quot;&gt;String&lt;/span&gt;&lt;/div&gt;&lt;div&gt;- timeSlot:&amp;nbsp;&lt;span style=&quot;background-color: transparent; color: light-dark(rgb(0, 0, 0), rgb(255, 255, 255));&quot;&gt;String&lt;/span&gt;&lt;/div&gt;&lt;div&gt;- car : Car&lt;/div&gt;&lt;div&gt;- mechanic : Mechanic&lt;/div&gt;&lt;div&gt;- technician : Technician&lt;/div&gt;&lt;div&gt;- frontDeskStaff : FrontDeskStaff&lt;/div&gt;&lt;div&gt;- status&lt;/div&gt;&lt;div&gt;&lt;br&gt;&lt;/div&gt;" style="text;strokeColor=none;fillColor=none;align=left;verticalAlign=top;spacingLeft=4;spacingRight=4;overflow=hidden;rotatable=0;points=[[0,0.5],[1,0.5]];portConstraint=eastwest;whiteSpace=wrap;html=1;" parent="XJ3mTxxbePYoQH1ULrd1-33" vertex="1">
          <mxGeometry y="26" width="210" height="124" as="geometry" />
        </mxCell>
        <mxCell id="XJ3mTxxbePYoQH1ULrd1-35" value="" style="line;strokeWidth=1;fillColor=none;align=left;verticalAlign=middle;spacingTop=-1;spacingLeft=3;spacingRight=3;rotatable=0;labelPosition=right;points=[];portConstraint=eastwest;strokeColor=inherit;" parent="XJ3mTxxbePYoQH1ULrd1-33" vertex="1">
          <mxGeometry y="150" width="210" height="8" as="geometry" />
        </mxCell>
        <mxCell id="XJ3mTxxbePYoQH1ULrd1-36" value="&lt;div&gt;+ schedule()&lt;/div&gt;&lt;div&gt;+ cancel()&lt;/div&gt;&lt;div&gt;+ getDetails()&lt;/div&gt;" style="text;strokeColor=none;fillColor=none;align=left;verticalAlign=top;spacingLeft=4;spacingRight=4;overflow=hidden;rotatable=0;points=[[0,0.5],[1,0.5]];portConstraint=eastwest;whiteSpace=wrap;html=1;" parent="XJ3mTxxbePYoQH1ULrd1-33" vertex="1">
          <mxGeometry y="158" width="210" height="52" as="geometry" />
        </mxCell>
        <mxCell id="XJ3mTxxbePYoQH1ULrd1-37" value="&lt;div&gt;ServiceReport&lt;/div&gt;" style="swimlane;fontStyle=1;align=center;verticalAlign=top;childLayout=stackLayout;horizontal=1;startSize=26;horizontalStack=0;resizeParent=1;resizeParentMax=0;resizeLast=0;collapsible=1;marginBottom=0;whiteSpace=wrap;html=1;" parent="1" vertex="1">
          <mxGeometry x="-250" y="700" width="210" height="160" as="geometry" />
        </mxCell>
        <mxCell id="XJ3mTxxbePYoQH1ULrd1-38" value="&lt;div&gt;&lt;div&gt;- reportID: String&lt;/div&gt;&lt;div&gt;- repairsPerformed: String&lt;/div&gt;&lt;div&gt;- partsUsed: String&lt;/div&gt;&lt;div&gt;- appointment : Appointment&lt;/div&gt;&lt;/div&gt;" style="text;strokeColor=none;fillColor=none;align=left;verticalAlign=top;spacingLeft=4;spacingRight=4;overflow=hidden;rotatable=0;points=[[0,0.5],[1,0.5]];portConstraint=eastwest;whiteSpace=wrap;html=1;" parent="XJ3mTxxbePYoQH1ULrd1-37" vertex="1">
          <mxGeometry y="26" width="210" height="84" as="geometry" />
        </mxCell>
        <mxCell id="XJ3mTxxbePYoQH1ULrd1-39" value="" style="line;strokeWidth=1;fillColor=none;align=left;verticalAlign=middle;spacingTop=-1;spacingLeft=3;spacingRight=3;rotatable=0;labelPosition=right;points=[];portConstraint=eastwest;strokeColor=inherit;" parent="XJ3mTxxbePYoQH1ULrd1-37" vertex="1">
          <mxGeometry y="110" width="210" height="8" as="geometry" />
        </mxCell>
        <mxCell id="XJ3mTxxbePYoQH1ULrd1-40" value="&lt;div&gt;&lt;span style=&quot;background-color: transparent; color: light-dark(rgb(0, 0, 0), rgb(255, 255, 255));&quot;&gt;+ getReportDetails()&lt;/span&gt;&lt;br&gt;&lt;/div&gt;" style="text;strokeColor=none;fillColor=none;align=left;verticalAlign=top;spacingLeft=4;spacingRight=4;overflow=hidden;rotatable=0;points=[[0,0.5],[1,0.5]];portConstraint=eastwest;whiteSpace=wrap;html=1;" parent="XJ3mTxxbePYoQH1ULrd1-37" vertex="1">
          <mxGeometry y="118" width="210" height="42" as="geometry" />
        </mxCell>
        <mxCell id="XJ3mTxxbePYoQH1ULrd1-41" value="DiagnosticResult" style="swimlane;fontStyle=1;align=center;verticalAlign=top;childLayout=stackLayout;horizontal=1;startSize=26;horizontalStack=0;resizeParent=1;resizeParentMax=0;resizeLast=0;collapsible=1;marginBottom=0;whiteSpace=wrap;html=1;" parent="1" vertex="1">
          <mxGeometry x="-450" y="550" width="210" height="150" as="geometry" />
        </mxCell>
        <mxCell id="XJ3mTxxbePYoQH1ULrd1-42" value="&lt;div&gt;&lt;div&gt;- resultID&lt;/div&gt;&lt;div&gt;- issuesFound&lt;/div&gt;&lt;div&gt;- recommendations&lt;/div&gt;&lt;div&gt;- appointment : Appointment&lt;/div&gt;&lt;/div&gt;" style="text;strokeColor=none;fillColor=none;align=left;verticalAlign=top;spacingLeft=4;spacingRight=4;overflow=hidden;rotatable=0;points=[[0,0.5],[1,0.5]];portConstraint=eastwest;whiteSpace=wrap;html=1;" parent="XJ3mTxxbePYoQH1ULrd1-41" vertex="1">
          <mxGeometry y="26" width="210" height="74" as="geometry" />
        </mxCell>
        <mxCell id="XJ3mTxxbePYoQH1ULrd1-43" value="" style="line;strokeWidth=1;fillColor=none;align=left;verticalAlign=middle;spacingTop=-1;spacingLeft=3;spacingRight=3;rotatable=0;labelPosition=right;points=[];portConstraint=eastwest;strokeColor=inherit;" parent="XJ3mTxxbePYoQH1ULrd1-41" vertex="1">
          <mxGeometry y="100" width="210" height="8" as="geometry" />
        </mxCell>
        <mxCell id="XJ3mTxxbePYoQH1ULrd1-44" value="&lt;div&gt;&lt;span style=&quot;background-color: transparent; color: light-dark(rgb(0, 0, 0), rgb(255, 255, 255));&quot;&gt;+ generateReport()&lt;/span&gt;&lt;br&gt;&lt;/div&gt;" style="text;strokeColor=none;fillColor=none;align=left;verticalAlign=top;spacingLeft=4;spacingRight=4;overflow=hidden;rotatable=0;points=[[0,0.5],[1,0.5]];portConstraint=eastwest;whiteSpace=wrap;html=1;" parent="XJ3mTxxbePYoQH1ULrd1-41" vertex="1">
          <mxGeometry y="108" width="210" height="42" as="geometry" />
        </mxCell>
        <mxCell id="XJ3mTxxbePYoQH1ULrd1-45" value="" style="endArrow=none;html=1;edgeStyle=elbowEdgeStyle;rounded=0;entryX=0;entryY=0.75;entryDx=0;entryDy=0;exitX=1.009;exitY=0.642;exitDx=0;exitDy=0;exitPerimeter=0;" parent="1" source="XJ3mTxxbePYoQH1ULrd1-7" target="XJ3mTxxbePYoQH1ULrd1-31" edge="1">
          <mxGeometry relative="1" as="geometry">
            <mxPoint x="980" y="190" as="sourcePoint" />
            <mxPoint x="1140" y="190" as="targetPoint" />
            <Array as="points">
              <mxPoint x="1210" y="90" />
            </Array>
          </mxGeometry>
        </mxCell>
        <mxCell id="XJ3mTxxbePYoQH1ULrd1-46" value="1car has only" style="edgeLabel;resizable=0;html=1;align=left;verticalAlign=bottom;" parent="XJ3mTxxbePYoQH1ULrd1-45" connectable="0" vertex="1">
          <mxGeometry x="-1" relative="1" as="geometry">
            <mxPoint y="22" as="offset" />
          </mxGeometry>
        </mxCell>
        <mxCell id="XJ3mTxxbePYoQH1ULrd1-47" value="customer can have1..*" style="edgeLabel;resizable=0;html=1;align=right;verticalAlign=bottom;" parent="XJ3mTxxbePYoQH1ULrd1-45" connectable="0" vertex="1">
          <mxGeometry x="1" relative="1" as="geometry">
            <mxPoint x="-10" as="offset" />
          </mxGeometry>
        </mxCell>
        <mxCell id="XJ3mTxxbePYoQH1ULrd1-48" value="" style="endArrow=none;html=1;edgeStyle=orthogonalEdgeStyle;rounded=0;entryX=0.339;entryY=1.015;entryDx=0;entryDy=0;entryPerimeter=0;jumpStyle=arc;" parent="1" source="XJ3mTxxbePYoQH1ULrd1-34" target="XJ3mTxxbePYoQH1ULrd1-31" edge="1">
          <mxGeometry relative="1" as="geometry">
            <mxPoint x="960" y="380" as="sourcePoint" />
            <mxPoint x="1120" y="380" as="targetPoint" />
          </mxGeometry>
        </mxCell>
        <mxCell id="XJ3mTxxbePYoQH1ULrd1-49" value="1..* can can have" style="edgeLabel;resizable=0;html=1;align=left;verticalAlign=bottom;" parent="XJ3mTxxbePYoQH1ULrd1-48" connectable="0" vertex="1">
          <mxGeometry x="-1" relative="1" as="geometry" />
        </mxCell>
        <mxCell id="XJ3mTxxbePYoQH1ULrd1-50" value="1 for each car" style="edgeLabel;resizable=0;html=1;align=right;verticalAlign=bottom;" parent="XJ3mTxxbePYoQH1ULrd1-48" connectable="0" vertex="1">
          <mxGeometry x="1" relative="1" as="geometry">
            <mxPoint x="72" y="19" as="offset" />
          </mxGeometry>
        </mxCell>
        <mxCell id="XJ3mTxxbePYoQH1ULrd1-60" value="" style="endArrow=none;html=1;edgeStyle=orthogonalEdgeStyle;rounded=0;entryX=0.121;entryY=1.026;entryDx=0;entryDy=0;entryPerimeter=0;" parent="1" source="XJ3mTxxbePYoQH1ULrd1-38" target="XJ3mTxxbePYoQH1ULrd1-36" edge="1">
          <mxGeometry relative="1" as="geometry">
            <mxPoint x="490" y="690" as="sourcePoint" />
            <mxPoint x="650" y="690" as="targetPoint" />
            <Array as="points">
              <mxPoint x="500" y="758" />
              <mxPoint x="500" y="561" />
            </Array>
          </mxGeometry>
        </mxCell>
        <mxCell id="XJ3mTxxbePYoQH1ULrd1-61" value="1 can have" style="edgeLabel;resizable=0;html=1;align=left;verticalAlign=bottom;" parent="XJ3mTxxbePYoQH1ULrd1-60" connectable="0" vertex="1">
          <mxGeometry x="-1" relative="1" as="geometry" />
        </mxCell>
        <mxCell id="XJ3mTxxbePYoQH1ULrd1-62" value="1 linked" style="edgeLabel;resizable=0;html=1;align=right;verticalAlign=bottom;" parent="XJ3mTxxbePYoQH1ULrd1-60" connectable="0" vertex="1">
          <mxGeometry x="1" relative="1" as="geometry">
            <mxPoint x="49" y="19" as="offset" />
          </mxGeometry>
        </mxCell>
        <mxCell id="XJ3mTxxbePYoQH1ULrd1-63" value="" style="endArrow=none;html=1;edgeStyle=elbowEdgeStyle;rounded=0;entryX=-0.008;entryY=0.847;entryDx=0;entryDy=0;entryPerimeter=0;exitX=1;exitY=0.5;exitDx=0;exitDy=0;" parent="1" source="XJ3mTxxbePYoQH1ULrd1-42" target="XJ3mTxxbePYoQH1ULrd1-36" edge="1">
          <mxGeometry relative="1" as="geometry">
            <mxPoint x="320" y="630" as="sourcePoint" />
            <mxPoint x="341" y="500" as="targetPoint" />
          </mxGeometry>
        </mxCell>
        <mxCell id="XJ3mTxxbePYoQH1ULrd1-64" value="1 can have" style="edgeLabel;resizable=0;html=1;align=left;verticalAlign=bottom;" parent="XJ3mTxxbePYoQH1ULrd1-63" connectable="0" vertex="1">
          <mxGeometry x="-1" relative="1" as="geometry" />
        </mxCell>
        <mxCell id="XJ3mTxxbePYoQH1ULrd1-65" value="1 linked" style="edgeLabel;resizable=0;html=1;align=right;verticalAlign=bottom;" parent="XJ3mTxxbePYoQH1ULrd1-63" connectable="0" vertex="1">
          <mxGeometry x="1" relative="1" as="geometry">
            <mxPoint x="-16" y="19" as="offset" />
          </mxGeometry>
        </mxCell>
        <mxCell id="XJ3mTxxbePYoQH1ULrd1-66" value="CustomerFactory" style="swimlane;fontStyle=1;align=center;verticalAlign=top;childLayout=stackLayout;horizontal=1;startSize=26;horizontalStack=0;resizeParent=1;resizeParentMax=0;resizeLast=0;collapsible=1;marginBottom=0;whiteSpace=wrap;html=1;" parent="1" vertex="1">
          <mxGeometry x="1070" y="145" width="290" height="70" as="geometry" />
        </mxCell>
        <mxCell id="XJ3mTxxbePYoQH1ULrd1-69" value="+ createCustomer(type: String): Customer" style="text;strokeColor=none;fillColor=none;align=left;verticalAlign=top;spacingLeft=4;spacingRight=4;overflow=hidden;rotatable=0;points=[[0,0.5],[1,0.5]];portConstraint=eastwest;whiteSpace=wrap;html=1;" parent="XJ3mTxxbePYoQH1ULrd1-66" vertex="1">
          <mxGeometry y="26" width="290" height="44" as="geometry" />
        </mxCell>
        <mxCell id="XJ3mTxxbePYoQH1ULrd1-70" value="" style="endArrow=open;endSize=12;dashed=1;html=1;rounded=0;exitX=0;exitY=0.25;exitDx=0;exitDy=0;entryX=1;entryY=0.5;entryDx=0;entryDy=0;edgeStyle=elbowEdgeStyle;" parent="1" source="XJ3mTxxbePYoQH1ULrd1-66" target="XJ3mTxxbePYoQH1ULrd1-9" edge="1">
          <mxGeometry x="-0.045" y="53" width="160" relative="1" as="geometry">
            <mxPoint x="1380" y="430" as="sourcePoint" />
            <mxPoint x="1540" y="430" as="targetPoint" />
            <mxPoint as="offset" />
          </mxGeometry>
        </mxCell>
        <mxCell id="XJ3mTxxbePYoQH1ULrd1-72" value="" style="endArrow=open;html=1;edgeStyle=elbowEdgeStyle;rounded=0;elbow=horizontal;entryX=0;entryY=0.5;entryDx=0;entryDy=0;jumpStyle=arc;endFill=0;dashed=1;exitX=1.008;exitY=1.021;exitDx=0;exitDy=0;exitPerimeter=0;" parent="1" source="m8UOoC5RrhPk3B2KH3hk-16" target="XJ3mTxxbePYoQH1ULrd1-69" edge="1">
          <mxGeometry relative="1" as="geometry">
            <mxPoint x="480" y="230" as="sourcePoint" />
            <mxPoint x="1120" y="320" as="targetPoint" />
          </mxGeometry>
        </mxCell>
        <mxCell id="XJ3mTxxbePYoQH1ULrd1-78" value="ServiceFacade" style="swimlane;fontStyle=1;align=center;verticalAlign=top;childLayout=stackLayout;horizontal=1;startSize=26;horizontalStack=0;resizeParent=1;resizeParentMax=0;resizeLast=0;collapsible=1;marginBottom=0;whiteSpace=wrap;html=1;" parent="1" vertex="1">
          <mxGeometry x="370" y="-380" width="360" height="130" as="geometry" />
        </mxCell>
        <mxCell id="XJ3mTxxbePYoQH1ULrd1-79" value="&lt;div&gt;+ registerCustomer(details: Customer):&amp;nbsp;&lt;span style=&quot;background-color: transparent; color: light-dark(rgb(0, 0, 0), rgb(255, 255, 255));&quot;&gt;void&lt;/span&gt;&lt;/div&gt;&lt;div&gt;+ scheduleAppointment(appointment: Appointment):&amp;nbsp;&lt;span style=&quot;background-color: transparent; color: light-dark(rgb(0, 0, 0), rgb(255, 255, 255));&quot;&gt;void&lt;/span&gt;&lt;span style=&quot;background-color: transparent; color: light-dark(rgb(0, 0, 0), rgb(255, 255, 255));&quot;&gt;&amp;nbsp;&lt;/span&gt;&lt;/div&gt;&lt;div&gt;+ createInvoice(nationalID: String): Invoice&lt;/div&gt;&lt;div&gt;+ printDailyAppointments(date: Date): void&lt;/div&gt;&lt;div&gt;+ addServiceReport(): void&lt;/div&gt;&lt;div&gt;+ addDiagnosticResults(): void&lt;/div&gt;&lt;div&gt;&lt;br&gt;&lt;/div&gt;" style="text;strokeColor=none;fillColor=none;align=left;verticalAlign=top;spacingLeft=4;spacingRight=4;overflow=hidden;rotatable=0;points=[[0,0.5],[1,0.5]];portConstraint=eastwest;whiteSpace=wrap;html=1;" parent="XJ3mTxxbePYoQH1ULrd1-78" vertex="1">
          <mxGeometry y="26" width="360" height="104" as="geometry" />
        </mxCell>
        <mxCell id="XJ3mTxxbePYoQH1ULrd1-82" value="Invoice" style="swimlane;fontStyle=1;align=center;verticalAlign=top;childLayout=stackLayout;horizontal=1;startSize=26;horizontalStack=0;resizeParent=1;resizeParentMax=0;resizeLast=0;collapsible=1;marginBottom=0;whiteSpace=wrap;html=1;" parent="1" vertex="1">
          <mxGeometry x="10" y="-160" width="160" height="180" as="geometry" />
        </mxCell>
        <mxCell id="XJ3mTxxbePYoQH1ULrd1-83" value="- invoiceID: String&lt;div&gt;- customerID: String&lt;/div&gt;&lt;div&gt;-&amp;nbsp;amount: double&lt;/div&gt;&lt;div&gt;-&amp;nbsp;discount: double&lt;/div&gt;&lt;div&gt;-&amp;nbsp;totalAmount: double&lt;/div&gt;&lt;div&gt;-&amp;nbsp;date: Date&lt;/div&gt;" style="text;strokeColor=none;fillColor=none;align=left;verticalAlign=top;spacingLeft=4;spacingRight=4;overflow=hidden;rotatable=0;points=[[0,0.5],[1,0.5]];portConstraint=eastwest;whiteSpace=wrap;html=1;" parent="XJ3mTxxbePYoQH1ULrd1-82" vertex="1">
          <mxGeometry y="26" width="160" height="104" as="geometry" />
        </mxCell>
        <mxCell id="XJ3mTxxbePYoQH1ULrd1-84" value="" style="line;strokeWidth=1;fillColor=none;align=left;verticalAlign=middle;spacingTop=-1;spacingLeft=3;spacingRight=3;rotatable=0;labelPosition=right;points=[];portConstraint=eastwest;strokeColor=inherit;" parent="XJ3mTxxbePYoQH1ULrd1-82" vertex="1">
          <mxGeometry y="130" width="160" height="8" as="geometry" />
        </mxCell>
        <mxCell id="XJ3mTxxbePYoQH1ULrd1-85" value="&lt;div&gt;+&amp;nbsp;printInvoice()&lt;/div&gt;" style="text;strokeColor=none;fillColor=none;align=left;verticalAlign=top;spacingLeft=4;spacingRight=4;overflow=hidden;rotatable=0;points=[[0,0.5],[1,0.5]];portConstraint=eastwest;whiteSpace=wrap;html=1;" parent="XJ3mTxxbePYoQH1ULrd1-82" vertex="1">
          <mxGeometry y="138" width="160" height="42" as="geometry" />
        </mxCell>
        <mxCell id="XJ3mTxxbePYoQH1ULrd1-86" value="" style="endArrow=none;html=1;edgeStyle=elbowEdgeStyle;rounded=0;exitX=0.996;exitY=0.246;exitDx=0;exitDy=0;exitPerimeter=0;entryX=0.5;entryY=0;entryDx=0;entryDy=0;" parent="1" source="XJ3mTxxbePYoQH1ULrd1-83" target="XJ3mTxxbePYoQH1ULrd1-6" edge="1">
          <mxGeometry relative="1" as="geometry">
            <mxPoint x="220" y="-110" as="sourcePoint" />
            <mxPoint x="1251.0526315789473" y="-80" as="targetPoint" />
            <Array as="points">
              <mxPoint x="830" y="-120" />
            </Array>
          </mxGeometry>
        </mxCell>
        <mxCell id="XJ3mTxxbePYoQH1ULrd1-87" value="1&amp;nbsp;" style="edgeLabel;resizable=0;html=1;align=left;verticalAlign=bottom;" parent="XJ3mTxxbePYoQH1ULrd1-86" connectable="0" vertex="1">
          <mxGeometry x="-1" relative="1" as="geometry" />
        </mxCell>
        <mxCell id="XJ3mTxxbePYoQH1ULrd1-88" value="1" style="edgeLabel;resizable=0;html=1;align=right;verticalAlign=bottom;" parent="XJ3mTxxbePYoQH1ULrd1-86" connectable="0" vertex="1">
          <mxGeometry x="1" relative="1" as="geometry" />
        </mxCell>
        <mxCell id="XJ3mTxxbePYoQH1ULrd1-90" value="" style="endArrow=none;html=1;edgeStyle=orthogonalEdgeStyle;rounded=0;exitX=0.5;exitY=0;exitDx=0;exitDy=0;" parent="1" source="XJ3mTxxbePYoQH1ULrd1-82" target="XJ3mTxxbePYoQH1ULrd1-79" edge="1">
          <mxGeometry relative="1" as="geometry">
            <mxPoint x="150" y="-290" as="sourcePoint" />
            <mxPoint x="310" y="-290" as="targetPoint" />
          </mxGeometry>
        </mxCell>
        <mxCell id="XJ3mTxxbePYoQH1ULrd1-93" value="" style="endArrow=none;html=1;edgeStyle=orthogonalEdgeStyle;rounded=0;entryX=0.75;entryY=0;entryDx=0;entryDy=0;" parent="1" source="XJ3mTxxbePYoQH1ULrd1-79" target="XJ3mTxxbePYoQH1ULrd1-6" edge="1">
          <mxGeometry relative="1" as="geometry">
            <mxPoint x="800" y="-220" as="sourcePoint" />
            <mxPoint x="960" y="-220" as="targetPoint" />
          </mxGeometry>
        </mxCell>
        <mxCell id="XJ3mTxxbePYoQH1ULrd1-100" value="1..*" style="edgeLabel;html=1;align=center;verticalAlign=middle;resizable=0;points=[];" parent="XJ3mTxxbePYoQH1ULrd1-93" vertex="1" connectable="0">
          <mxGeometry x="0.9368" y="2" relative="1" as="geometry">
            <mxPoint x="11" y="5" as="offset" />
          </mxGeometry>
        </mxCell>
        <mxCell id="XJ3mTxxbePYoQH1ULrd1-96" value="" style="endArrow=none;html=1;edgeStyle=orthogonalEdgeStyle;rounded=0;exitX=0.501;exitY=1.005;exitDx=0;exitDy=0;exitPerimeter=0;entryX=0.5;entryY=0;entryDx=0;entryDy=0;jumpStyle=arc;" parent="1" source="XJ3mTxxbePYoQH1ULrd1-79" target="XJ3mTxxbePYoQH1ULrd1-33" edge="1">
          <mxGeometry relative="1" as="geometry">
            <mxPoint x="450" y="-170" as="sourcePoint" />
            <mxPoint x="610" y="-170" as="targetPoint" />
            <Array as="points">
              <mxPoint x="550" y="-10" />
              <mxPoint x="650" y="-10" />
              <mxPoint x="650" y="350" />
            </Array>
          </mxGeometry>
        </mxCell>
        <mxCell id="XJ3mTxxbePYoQH1ULrd1-99" value="Use" style="endArrow=open;endSize=12;dashed=1;html=1;rounded=0;edgeStyle=elbowEdgeStyle;elbow=vertical;entryX=0.308;entryY=1.015;entryDx=0;entryDy=0;entryPerimeter=0;jumpStyle=arc;exitX=0.75;exitY=0;exitDx=0;exitDy=0;" parent="1" source="m8UOoC5RrhPk3B2KH3hk-15" target="XJ3mTxxbePYoQH1ULrd1-79" edge="1">
          <mxGeometry x="0.0012" width="160" relative="1" as="geometry">
            <mxPoint x="290" y="80" as="sourcePoint" />
            <mxPoint x="520.0000000000001" y="-280.0000000000001" as="targetPoint" />
            <Array as="points">
              <mxPoint x="372.64" y="-26.36" />
            </Array>
            <mxPoint as="offset" />
          </mxGeometry>
        </mxCell>
        <mxCell id="XJ3mTxxbePYoQH1ULrd1-101" value="&lt;span style=&quot;color: rgb(255, 255, 255); font-family: Helvetica; font-size: 11px; font-style: normal; font-variant-ligatures: normal; font-variant-caps: normal; font-weight: 400; letter-spacing: normal; orphans: 2; text-align: center; text-indent: 0px; text-transform: none; widows: 2; word-spacing: 0px; -webkit-text-stroke-width: 0px; white-space: nowrap; background-color: rgb(18, 18, 18); text-decoration-thickness: initial; text-decoration-style: initial; text-decoration-color: initial; display: inline !important; float: none;&quot;&gt;1..*&lt;/span&gt;" style="text;whiteSpace=wrap;html=1;" parent="1" vertex="1">
          <mxGeometry x="600" y="330" width="40" height="40" as="geometry" />
        </mxCell>
        <mxCell id="XJ3mTxxbePYoQH1ULrd1-106" value="Use" style="endArrow=open;endSize=12;dashed=1;html=1;rounded=0;exitX=1;exitY=0.5;exitDx=0;exitDy=0;entryX=0.094;entryY=0.986;entryDx=0;entryDy=0;entryPerimeter=0;edgeStyle=elbowEdgeStyle;elbow=vertical;jumpStyle=arc;" parent="1" source="XJ3mTxxbePYoQH1ULrd1-26" target="XJ3mTxxbePYoQH1ULrd1-79" edge="1">
          <mxGeometry width="160" relative="1" as="geometry">
            <mxPoint x="-30" y="110" as="sourcePoint" />
            <mxPoint x="130" y="110" as="targetPoint" />
            <Array as="points">
              <mxPoint x="180" y="110" />
            </Array>
          </mxGeometry>
        </mxCell>
        <mxCell id="XJ3mTxxbePYoQH1ULrd1-107" value="Use" style="endArrow=open;endSize=12;dashed=1;html=1;rounded=0;exitX=0;exitY=0;exitDx=0;exitDy=0;entryX=0.25;entryY=0;entryDx=0;entryDy=0;edgeStyle=elbowEdgeStyle;elbow=vertical;jumpStyle=arc;" parent="1" source="XJ3mTxxbePYoQH1ULrd1-28" target="XJ3mTxxbePYoQH1ULrd1-78" edge="1">
          <mxGeometry width="160" relative="1" as="geometry">
            <mxPoint x="-390.5699999999997" y="427.0000000000002" as="sourcePoint" />
            <mxPoint x="460" y="-398.97" as="targetPoint" />
            <Array as="points">
              <mxPoint x="50" y="-398.97" />
            </Array>
          </mxGeometry>
        </mxCell>
        <mxCell id="XJ3mTxxbePYoQH1ULrd1-110" value="«interface»&lt;br&gt;Iterator" style="swimlane;fontStyle=0;childLayout=stackLayout;horizontal=1;startSize=26;fillColor=none;horizontalStack=0;resizeParent=1;resizeParentMax=0;resizeLast=0;collapsible=1;marginBottom=0;whiteSpace=wrap;html=1;" parent="1" vertex="1">
          <mxGeometry x="900" y="772" width="140" height="78" as="geometry">
            <mxRectangle x="640" y="720" width="100" height="40" as="alternateBounds" />
          </mxGeometry>
        </mxCell>
        <mxCell id="XJ3mTxxbePYoQH1ULrd1-111" value="+ hasNext(): Boolean" style="text;strokeColor=none;fillColor=none;align=left;verticalAlign=top;spacingLeft=4;spacingRight=4;overflow=hidden;rotatable=0;points=[[0,0.5],[1,0.5]];portConstraint=eastwest;whiteSpace=wrap;html=1;" parent="XJ3mTxxbePYoQH1ULrd1-110" vertex="1">
          <mxGeometry y="26" width="140" height="26" as="geometry" />
        </mxCell>
        <mxCell id="XJ3mTxxbePYoQH1ULrd1-112" value="+ next(): Appointment" style="text;strokeColor=none;fillColor=none;align=left;verticalAlign=top;spacingLeft=4;spacingRight=4;overflow=hidden;rotatable=0;points=[[0,0.5],[1,0.5]];portConstraint=eastwest;whiteSpace=wrap;html=1;" parent="XJ3mTxxbePYoQH1ULrd1-110" vertex="1">
          <mxGeometry y="52" width="140" height="26" as="geometry" />
        </mxCell>
        <mxCell id="XJ3mTxxbePYoQH1ULrd1-114" value="AppointmentIterator" style="swimlane;fontStyle=0;childLayout=stackLayout;horizontal=1;startSize=26;fillColor=none;horizontalStack=0;resizeParent=1;resizeParentMax=0;resizeLast=0;collapsible=1;marginBottom=0;whiteSpace=wrap;html=1;" parent="1" vertex="1">
          <mxGeometry x="570" y="910" width="140" height="78" as="geometry" />
        </mxCell>
        <mxCell id="XJ3mTxxbePYoQH1ULrd1-115" value="+ hasNext(): Boolean" style="text;strokeColor=none;fillColor=none;align=left;verticalAlign=top;spacingLeft=4;spacingRight=4;overflow=hidden;rotatable=0;points=[[0,0.5],[1,0.5]];portConstraint=eastwest;whiteSpace=wrap;html=1;" parent="XJ3mTxxbePYoQH1ULrd1-114" vertex="1">
          <mxGeometry y="26" width="140" height="26" as="geometry" />
        </mxCell>
        <mxCell id="XJ3mTxxbePYoQH1ULrd1-116" value="+ next(): Appointment" style="text;strokeColor=none;fillColor=none;align=left;verticalAlign=top;spacingLeft=4;spacingRight=4;overflow=hidden;rotatable=0;points=[[0,0.5],[1,0.5]];portConstraint=eastwest;whiteSpace=wrap;html=1;" parent="XJ3mTxxbePYoQH1ULrd1-114" vertex="1">
          <mxGeometry y="52" width="140" height="26" as="geometry" />
        </mxCell>
        <mxCell id="XJ3mTxxbePYoQH1ULrd1-118" value="" style="endArrow=block;dashed=1;endFill=0;endSize=12;html=1;rounded=0;exitX=0;exitY=0.5;exitDx=0;exitDy=0;entryX=1;entryY=0.5;entryDx=0;entryDy=0;edgeStyle=elbowEdgeStyle;elbow=vertical;" parent="1" source="XJ3mTxxbePYoQH1ULrd1-111" target="XJ3mTxxbePYoQH1ULrd1-115" edge="1">
          <mxGeometry width="160" relative="1" as="geometry">
            <mxPoint x="690" y="920" as="sourcePoint" />
            <mxPoint x="850" y="920" as="targetPoint" />
          </mxGeometry>
        </mxCell>
        <mxCell id="XJ3mTxxbePYoQH1ULrd1-123" value="Use" style="endArrow=open;endSize=12;dashed=1;html=1;rounded=0;exitX=0.374;exitY=0.962;exitDx=0;exitDy=0;exitPerimeter=0;entryX=0.5;entryY=0;entryDx=0;entryDy=0;edgeStyle=elbowEdgeStyle;elbow=vertical;" parent="1" source="XJ3mTxxbePYoQH1ULrd1-130" target="XJ3mTxxbePYoQH1ULrd1-114" edge="1">
          <mxGeometry width="160" relative="1" as="geometry">
            <mxPoint x="390" y="830" as="sourcePoint" />
            <mxPoint x="550" y="830" as="targetPoint" />
          </mxGeometry>
        </mxCell>
        <mxCell id="XJ3mTxxbePYoQH1ULrd1-124" value="" style="endArrow=none;html=1;edgeStyle=elbowEdgeStyle;rounded=0;exitX=0.25;exitY=0;exitDx=0;exitDy=0;entryX=0.557;entryY=1.062;entryDx=0;entryDy=0;entryPerimeter=0;elbow=vertical;" parent="1" source="XJ3mTxxbePYoQH1ULrd1-127" target="XJ3mTxxbePYoQH1ULrd1-36" edge="1">
          <mxGeometry relative="1" as="geometry">
            <mxPoint x="640" y="620" as="sourcePoint" />
            <mxPoint x="800" y="620" as="targetPoint" />
          </mxGeometry>
        </mxCell>
        <mxCell id="XJ3mTxxbePYoQH1ULrd1-125" value="1" style="edgeLabel;resizable=0;html=1;align=left;verticalAlign=bottom;" parent="XJ3mTxxbePYoQH1ULrd1-124" connectable="0" vertex="1">
          <mxGeometry x="-1" relative="1" as="geometry" />
        </mxCell>
        <mxCell id="XJ3mTxxbePYoQH1ULrd1-126" value="1..* has many" style="edgeLabel;resizable=0;html=1;align=right;verticalAlign=bottom;" parent="XJ3mTxxbePYoQH1ULrd1-124" connectable="0" vertex="1">
          <mxGeometry x="1" relative="1" as="geometry">
            <mxPoint x="73" y="17" as="offset" />
          </mxGeometry>
        </mxCell>
        <mxCell id="XJ3mTxxbePYoQH1ULrd1-127" value="&lt;span style=&quot;font-weight: 400;&quot;&gt;Appointmentlist&lt;/span&gt;" style="swimlane;fontStyle=1;align=center;verticalAlign=top;childLayout=stackLayout;horizontal=1;startSize=26;horizontalStack=0;resizeParent=1;resizeParentMax=0;resizeLast=0;collapsible=1;marginBottom=0;whiteSpace=wrap;html=1;" parent="1" vertex="1">
          <mxGeometry x="540" y="640" width="320" height="160" as="geometry" />
        </mxCell>
        <mxCell id="XJ3mTxxbePYoQH1ULrd1-128" value="appointments: List&amp;lt;Appointment&amp;gt;" style="text;strokeColor=none;fillColor=none;align=left;verticalAlign=top;spacingLeft=4;spacingRight=4;overflow=hidden;rotatable=0;points=[[0,0.5],[1,0.5]];portConstraint=eastwest;whiteSpace=wrap;html=1;" parent="XJ3mTxxbePYoQH1ULrd1-127" vertex="1">
          <mxGeometry y="26" width="320" height="26" as="geometry" />
        </mxCell>
        <mxCell id="XJ3mTxxbePYoQH1ULrd1-129" value="" style="line;strokeWidth=1;fillColor=none;align=left;verticalAlign=middle;spacingTop=-1;spacingLeft=3;spacingRight=3;rotatable=0;labelPosition=right;points=[];portConstraint=eastwest;strokeColor=inherit;" parent="XJ3mTxxbePYoQH1ULrd1-127" vertex="1">
          <mxGeometry y="52" width="320" height="8" as="geometry" />
        </mxCell>
        <mxCell id="XJ3mTxxbePYoQH1ULrd1-130" value="+ createIterator(): Iterator&lt;div&gt;+ addAppointment(appointment: Appointment): void&lt;br&gt;&lt;/div&gt;&lt;div&gt;+ removeAppointment(appointment: Appointment): void&lt;br&gt;&lt;/div&gt;&lt;div&gt;+ getAppointment(index: int): Appointment&lt;br&gt;&lt;/div&gt;" style="text;strokeColor=none;fillColor=none;align=left;verticalAlign=top;spacingLeft=4;spacingRight=4;overflow=hidden;rotatable=0;points=[[0,0.5],[1,0.5]];portConstraint=eastwest;whiteSpace=wrap;html=1;" parent="XJ3mTxxbePYoQH1ULrd1-127" vertex="1">
          <mxGeometry y="60" width="320" height="100" as="geometry" />
        </mxCell>
        <mxCell id="XJ3mTxxbePYoQH1ULrd1-131" value="" style="endArrow=none;html=1;edgeStyle=elbowEdgeStyle;rounded=0;elbow=vertical;entryX=0;entryY=0.5;entryDx=0;entryDy=0;jumpStyle=arc;" parent="1" source="m8UOoC5RrhPk3B2KH3hk-18" target="XJ3mTxxbePYoQH1ULrd1-128" edge="1">
          <mxGeometry relative="1" as="geometry">
            <mxPoint x="240" y="410" as="sourcePoint" />
            <mxPoint x="460" y="700" as="targetPoint" />
            <Array as="points">
              <mxPoint x="430" y="680" />
            </Array>
          </mxGeometry>
        </mxCell>
        <mxCell id="XJ3mTxxbePYoQH1ULrd1-132" value="1" style="edgeLabel;resizable=0;html=1;align=left;verticalAlign=bottom;" parent="XJ3mTxxbePYoQH1ULrd1-131" connectable="0" vertex="1">
          <mxGeometry x="-1" relative="1" as="geometry" />
        </mxCell>
        <mxCell id="XJ3mTxxbePYoQH1ULrd1-133" value="can intract 1..*" style="edgeLabel;resizable=0;html=1;align=right;verticalAlign=bottom;" parent="XJ3mTxxbePYoQH1ULrd1-131" connectable="0" vertex="1">
          <mxGeometry x="1" relative="1" as="geometry" />
        </mxCell>
        <mxCell id="XJ3mTxxbePYoQH1ULrd1-136" value="use" style="edgeLabel;html=1;align=center;verticalAlign=middle;resizable=0;points=[];" parent="XJ3mTxxbePYoQH1ULrd1-131" vertex="1" connectable="0">
          <mxGeometry x="-0.5875" y="-1" relative="1" as="geometry">
            <mxPoint as="offset" />
          </mxGeometry>
        </mxCell>
        <mxCell id="XJ3mTxxbePYoQH1ULrd1-135" value="Use" style="endArrow=open;endSize=12;dashed=1;html=1;rounded=0;exitX=0.5;exitY=0;exitDx=0;exitDy=0;entryX=0.965;entryY=1.019;entryDx=0;entryDy=0;entryPerimeter=0;edgeStyle=elbowEdgeStyle;elbow=vertical;" parent="1" source="XJ3mTxxbePYoQH1ULrd1-127" target="XJ3mTxxbePYoQH1ULrd1-36" edge="1">
          <mxGeometry width="160" relative="1" as="geometry">
            <mxPoint x="710" y="590" as="sourcePoint" />
            <mxPoint x="870" y="590" as="targetPoint" />
          </mxGeometry>
        </mxCell>
        <mxCell id="XJ3mTxxbePYoQH1ULrd1-137" value="" style="endArrow=none;html=1;edgeStyle=orthogonalEdgeStyle;rounded=0;exitX=0.995;exitY=0.86;exitDx=0;exitDy=0;exitPerimeter=0;jumpStyle=arc;entryX=0.001;entryY=0.177;entryDx=0;entryDy=0;entryPerimeter=0;" parent="1" source="XJ3mTxxbePYoQH1ULrd1-26" target="XJ3mTxxbePYoQH1ULrd1-130" edge="1">
          <mxGeometry relative="1" as="geometry">
            <mxPoint x="60" y="410" as="sourcePoint" />
            <mxPoint x="450" y="710" as="targetPoint" />
            <Array as="points">
              <mxPoint x="-230" y="133" />
              <mxPoint x="-230" y="400" />
              <mxPoint x="330" y="400" />
              <mxPoint x="330" y="730" />
              <mxPoint x="450" y="730" />
              <mxPoint x="450" y="718" />
            </Array>
          </mxGeometry>
        </mxCell>
        <mxCell id="XJ3mTxxbePYoQH1ULrd1-138" value="1" style="edgeLabel;resizable=0;html=1;align=left;verticalAlign=bottom;" parent="XJ3mTxxbePYoQH1ULrd1-137" connectable="0" vertex="1">
          <mxGeometry x="-1" relative="1" as="geometry" />
        </mxCell>
        <mxCell id="XJ3mTxxbePYoQH1ULrd1-139" value="1..*" style="edgeLabel;resizable=0;html=1;align=right;verticalAlign=bottom;" parent="XJ3mTxxbePYoQH1ULrd1-137" connectable="0" vertex="1">
          <mxGeometry x="1" relative="1" as="geometry" />
        </mxCell>
        <mxCell id="XJ3mTxxbePYoQH1ULrd1-140" value="use" style="edgeLabel;html=1;align=center;verticalAlign=middle;resizable=0;points=[];" parent="XJ3mTxxbePYoQH1ULrd1-137" vertex="1" connectable="0">
          <mxGeometry x="0.0025" y="1" relative="1" as="geometry">
            <mxPoint as="offset" />
          </mxGeometry>
        </mxCell>
        <mxCell id="XJ3mTxxbePYoQH1ULrd1-141" value="" style="endArrow=none;html=1;edgeStyle=orthogonalEdgeStyle;rounded=0;exitX=1.001;exitY=0.817;exitDx=0;exitDy=0;exitPerimeter=0;entryX=-0.006;entryY=0.932;entryDx=0;entryDy=0;entryPerimeter=0;jumpStyle=arc;" parent="1" source="XJ3mTxxbePYoQH1ULrd1-29" target="XJ3mTxxbePYoQH1ULrd1-130" edge="1">
          <mxGeometry relative="1" as="geometry">
            <mxPoint x="10" y="490" as="sourcePoint" />
            <mxPoint x="170" y="490" as="targetPoint" />
          </mxGeometry>
        </mxCell>
        <mxCell id="XJ3mTxxbePYoQH1ULrd1-142" value="1" style="edgeLabel;resizable=0;html=1;align=left;verticalAlign=bottom;" parent="XJ3mTxxbePYoQH1ULrd1-141" connectable="0" vertex="1">
          <mxGeometry x="-1" relative="1" as="geometry" />
        </mxCell>
        <mxCell id="XJ3mTxxbePYoQH1ULrd1-143" value="1..*" style="edgeLabel;resizable=0;html=1;align=right;verticalAlign=bottom;" parent="XJ3mTxxbePYoQH1ULrd1-141" connectable="0" vertex="1">
          <mxGeometry x="1" relative="1" as="geometry" />
        </mxCell>
        <mxCell id="XJ3mTxxbePYoQH1ULrd1-144" value="use" style="edgeLabel;html=1;align=center;verticalAlign=middle;resizable=0;points=[];" parent="XJ3mTxxbePYoQH1ULrd1-141" vertex="1" connectable="0">
          <mxGeometry x="-0.6727" y="-3" relative="1" as="geometry">
            <mxPoint as="offset" />
          </mxGeometry>
        </mxCell>
        <mxCell id="XJ3mTxxbePYoQH1ULrd1-146" value="" style="endArrow=none;html=1;edgeStyle=elbowEdgeStyle;rounded=0;exitX=0.857;exitY=0;exitDx=0;exitDy=0;exitPerimeter=0;entryX=0.153;entryY=1.01;entryDx=0;entryDy=0;entryPerimeter=0;elbow=vertical;" parent="1" source="XJ3mTxxbePYoQH1ULrd1-33" target="XJ3mTxxbePYoQH1ULrd1-9" edge="1">
          <mxGeometry relative="1" as="geometry">
            <mxPoint x="680" y="310" as="sourcePoint" />
            <mxPoint x="770" y="290" as="targetPoint" />
          </mxGeometry>
        </mxCell>
        <mxCell id="XJ3mTxxbePYoQH1ULrd1-147" value="1" style="edgeLabel;resizable=0;html=1;align=left;verticalAlign=bottom;" parent="XJ3mTxxbePYoQH1ULrd1-146" connectable="0" vertex="1">
          <mxGeometry x="-1" relative="1" as="geometry" />
        </mxCell>
        <mxCell id="XJ3mTxxbePYoQH1ULrd1-148" value="1..*" style="edgeLabel;resizable=0;html=1;align=right;verticalAlign=bottom;" parent="XJ3mTxxbePYoQH1ULrd1-146" connectable="0" vertex="1">
          <mxGeometry x="1" relative="1" as="geometry">
            <mxPoint x="28" y="20" as="offset" />
          </mxGeometry>
        </mxCell>
        <mxCell id="m8UOoC5RrhPk3B2KH3hk-1" value="«interface»&lt;br&gt;&lt;b&gt;Discountable&lt;/b&gt;" style="swimlane;fontStyle=0;childLayout=stackLayout;horizontal=1;startSize=26;fillColor=none;horizontalStack=0;resizeParent=1;resizeParentMax=0;resizeLast=0;collapsible=1;marginBottom=0;whiteSpace=wrap;html=1;" vertex="1" parent="1">
          <mxGeometry x="1080" y="230" width="160" height="52" as="geometry" />
        </mxCell>
        <mxCell id="m8UOoC5RrhPk3B2KH3hk-2" value="+ getDiscount(): double" style="text;strokeColor=none;fillColor=none;align=left;verticalAlign=top;spacingLeft=4;spacingRight=4;overflow=hidden;rotatable=0;points=[[0,0.5],[1,0.5]];portConstraint=eastwest;whiteSpace=wrap;html=1;" vertex="1" parent="m8UOoC5RrhPk3B2KH3hk-1">
          <mxGeometry y="26" width="160" height="26" as="geometry" />
        </mxCell>
        <mxCell id="m8UOoC5RrhPk3B2KH3hk-3" value="" style="endArrow=block;dashed=1;endFill=0;endSize=12;html=1;rounded=0;exitX=0.25;exitY=0;exitDx=0;exitDy=0;entryX=0.122;entryY=1.041;entryDx=0;entryDy=0;entryPerimeter=0;edgeStyle=elbowEdgeStyle;elbow=vertical;" edge="1" parent="1" target="m8UOoC5RrhPk3B2KH3hk-2" source="XJ3mTxxbePYoQH1ULrd1-15">
          <mxGeometry width="160" relative="1" as="geometry">
            <mxPoint x="920" y="630" as="sourcePoint" />
            <mxPoint x="1090" y="590" as="targetPoint" />
          </mxGeometry>
        </mxCell>
        <mxCell id="m8UOoC5RrhPk3B2KH3hk-4" value="" style="endArrow=block;dashed=1;endFill=0;endSize=12;html=1;rounded=0;exitX=0.75;exitY=0;exitDx=0;exitDy=0;entryX=0.46;entryY=0.905;entryDx=0;entryDy=0;entryPerimeter=0;edgeStyle=elbowEdgeStyle;elbow=vertical;" edge="1" parent="1" target="m8UOoC5RrhPk3B2KH3hk-2">
          <mxGeometry width="160" relative="1" as="geometry">
            <mxPoint x="1150" y="640" as="sourcePoint" />
            <mxPoint x="1270" y="560" as="targetPoint" />
          </mxGeometry>
        </mxCell>
        <mxCell id="m8UOoC5RrhPk3B2KH3hk-12" value="" style="edgeStyle=elbowEdgeStyle;rounded=0;orthogonalLoop=1;jettySize=auto;html=1;exitX=0.012;exitY=0.079;exitDx=0;exitDy=0;exitPerimeter=0;" edge="1" parent="1" source="m8UOoC5RrhPk3B2KH3hk-18" target="m8UOoC5RrhPk3B2KH3hk-8">
          <mxGeometry relative="1" as="geometry">
            <mxPoint x="-10" y="250" as="sourcePoint" />
            <mxPoint x="-190" y="-15" as="targetPoint" />
          </mxGeometry>
        </mxCell>
        <mxCell id="m8UOoC5RrhPk3B2KH3hk-8" value="&lt;div&gt;&amp;lt;&amp;lt;abstract&amp;gt;&amp;gt;&lt;/div&gt;Staff" style="swimlane;fontStyle=1;align=center;verticalAlign=top;childLayout=stackLayout;horizontal=1;startSize=40;horizontalStack=0;resizeParent=1;resizeParentMax=0;resizeLast=0;collapsible=1;marginBottom=0;whiteSpace=wrap;html=1;" vertex="1" parent="1">
          <mxGeometry x="-570" y="-160" width="210" height="104" as="geometry" />
        </mxCell>
        <mxCell id="m8UOoC5RrhPk3B2KH3hk-9" value="- staffID: String" style="text;strokeColor=none;fillColor=none;align=left;verticalAlign=top;spacingLeft=4;spacingRight=4;overflow=hidden;rotatable=0;points=[[0,0.5],[1,0.5]];portConstraint=eastwest;whiteSpace=wrap;html=1;" vertex="1" parent="m8UOoC5RrhPk3B2KH3hk-8">
          <mxGeometry y="40" width="210" height="30" as="geometry" />
        </mxCell>
        <mxCell id="m8UOoC5RrhPk3B2KH3hk-10" value="" style="line;strokeWidth=1;fillColor=none;align=left;verticalAlign=middle;spacingTop=-1;spacingLeft=3;spacingRight=3;rotatable=0;labelPosition=right;points=[];portConstraint=eastwest;strokeColor=inherit;" vertex="1" parent="m8UOoC5RrhPk3B2KH3hk-8">
          <mxGeometry y="70" width="210" height="8" as="geometry" />
        </mxCell>
        <mxCell id="m8UOoC5RrhPk3B2KH3hk-11" value="+getID(): String" style="text;strokeColor=none;fillColor=none;align=left;verticalAlign=top;spacingLeft=4;spacingRight=4;overflow=hidden;rotatable=0;points=[[0,0.5],[1,0.5]];portConstraint=eastwest;whiteSpace=wrap;html=1;" vertex="1" parent="m8UOoC5RrhPk3B2KH3hk-8">
          <mxGeometry y="78" width="210" height="26" as="geometry" />
        </mxCell>
        <mxCell id="m8UOoC5RrhPk3B2KH3hk-15" value="&lt;strong data-end=&quot;3230&quot; data-start=&quot;3212&quot;&gt;FrontDeskStaff&lt;/strong&gt;" style="swimlane;fontStyle=1;align=center;verticalAlign=top;childLayout=stackLayout;horizontal=1;startSize=26;horizontalStack=0;resizeParent=1;resizeParentMax=0;resizeLast=0;collapsible=1;marginBottom=0;whiteSpace=wrap;html=1;" vertex="1" parent="1">
          <mxGeometry x="-40" y="180" width="440" height="170" as="geometry" />
        </mxCell>
        <mxCell id="m8UOoC5RrhPk3B2KH3hk-16" value="- appointments List&amp;lt;Appointment&amp;gt;" style="text;strokeColor=none;fillColor=none;align=left;verticalAlign=top;spacingLeft=4;spacingRight=4;overflow=hidden;rotatable=0;points=[[0,0.5],[1,0.5]];portConstraint=eastwest;whiteSpace=wrap;html=1;" vertex="1" parent="m8UOoC5RrhPk3B2KH3hk-15">
          <mxGeometry y="26" width="440" height="26" as="geometry" />
        </mxCell>
        <mxCell id="m8UOoC5RrhPk3B2KH3hk-17" value="" style="line;strokeWidth=1;fillColor=none;align=left;verticalAlign=middle;spacingTop=-1;spacingLeft=3;spacingRight=3;rotatable=0;labelPosition=right;points=[];portConstraint=eastwest;strokeColor=inherit;" vertex="1" parent="m8UOoC5RrhPk3B2KH3hk-15">
          <mxGeometry y="52" width="440" height="8" as="geometry" />
        </mxCell>
        <mxCell id="m8UOoC5RrhPk3B2KH3hk-18" value="&lt;div&gt;+regusterCustomer(type: String, fullName:&lt;span style=&quot;background-color: transparent; color: light-dark(rgb(0, 0, 0), rgb(255, 255, 255));&quot;&gt;String,addres:&lt;/span&gt;&lt;span style=&quot;background-color: transparent; color: light-dark(rgb(0, 0, 0), rgb(255, 255, 255));&quot;&gt;String,nationalid&lt;/span&gt;&lt;span style=&quot;background-color: transparent; color: light-dark(rgb(0, 0, 0), rgb(255, 255, 255));&quot;&gt;String,contactNumber:&lt;/span&gt;&lt;span style=&quot;background-color: transparent; color: light-dark(rgb(0, 0, 0), rgb(255, 255, 255));&quot;&gt;String&lt;/span&gt;&lt;span style=&quot;background-color: transparent; color: light-dark(rgb(0, 0, 0), rgb(255, 255, 255));&quot;&gt;):&amp;nbsp;&lt;/span&gt;&lt;span style=&quot;background-color: transparent; color: light-dark(rgb(0, 0, 0), rgb(255, 255, 255));&quot;&gt;Customer&lt;/span&gt;&lt;/div&gt;&lt;div&gt;&lt;span style=&quot;background-color: light-dark(#ffffff, var(--ge-dark-color, #121212));&quot;&gt;&lt;font style=&quot;color: rgb(255, 255, 255);&quot;&gt;+scheduleAppointment(&lt;span style=&quot;font-family: Consolas; font-size: 10pt; white-space: pre;&quot;&gt;Customer &lt;/span&gt;&lt;span style=&quot;font-family: Consolas; font-size: 10pt; white-space: pre;&quot;&gt;customer&lt;/span&gt;&lt;span style=&quot;font-family: Consolas; font-size: 10pt; white-space: pre;&quot;&gt;,&lt;/span&gt;&lt;span style=&quot;font-family: Consolas; font-size: 10pt; white-space: pre;&quot;&gt;Car&lt;/span&gt;&lt;span style=&quot;font-family: Consolas; font-size: 10pt; white-space: pre;&quot;&gt; &lt;/span&gt;&lt;span style=&quot;font-family: Consolas; font-size: 10pt; white-space: pre;&quot;&gt;car&lt;/span&gt;&lt;/font&gt;&lt;/span&gt;&lt;/div&gt;&lt;div&gt;&lt;span style=&quot;background-color: light-dark(#ffffff, var(--ge-dark-color, #121212));&quot;&gt;&lt;font style=&quot;color: rgb(255, 255, 255);&quot;&gt;&lt;span style=&quot;font-family: Consolas; font-size: 10pt; white-space: pre;&quot;&gt;,&lt;/span&gt;&lt;span style=&quot;font-family: Consolas; font-size: 10pt; white-space: pre;&quot;&gt;LocalTime&lt;/span&gt;&lt;span style=&quot;font-family: Consolas; font-size: 10pt; white-space: pre;&quot;&gt; &lt;/span&gt;&lt;span style=&quot;font-family: Consolas; font-size: 10pt; white-space: pre;&quot;&gt;time&lt;/span&gt;):&amp;nbsp;&lt;span style=&quot;text-align: center;&quot;&gt;Appointment&lt;/span&gt;&lt;/font&gt;&lt;/span&gt;&lt;/div&gt;&lt;div&gt;+createInvoice(customer: Customer): Invoice&lt;/div&gt;&lt;div&gt;+printDailyAppointments():&amp;nbsp;&lt;span style=&quot;background-color: rgb(18, 18, 18); text-align: center; color: light-dark(rgb(0, 0, 0), rgb(255, 255, 255));&quot;&gt;Appointment&lt;/span&gt;&lt;/div&gt;" style="text;strokeColor=none;fillColor=none;align=left;verticalAlign=top;spacingLeft=4;spacingRight=4;overflow=hidden;rotatable=0;points=[[0,0.5],[1,0.5]];portConstraint=eastwest;whiteSpace=wrap;html=1;" vertex="1" parent="m8UOoC5RrhPk3B2KH3hk-15">
          <mxGeometry y="60" width="440" height="110" as="geometry" />
        </mxCell>
      </root>
    </mxGraphModel>
  </diagram>
</mxfile>
